DAYBREAKERS 2009 DvDRip H.264 PsP

Format                           : MPEG-4
Format profile                   : Base Media / Version 2
Codec ID                         : mp42
File size                        : 314 MiB
Duration                         : 1h 37mn
Overall bit rate                 : 449 Kbps
Encoded date                     : UTC 2010-04-26 21:21:14
Tagged date                      : UTC 2010-04-26 21:21:39
Writing application              : mp4creator 1.6.1d

Video
ID                               : 1
Format                           : AVC
Format/Info                      : Advanced Video Codec
Format profile                   : Baseline@L1.3
Format settings, CABAC           : No
Format settings, ReFrames        : 1 frame
Codec ID                         : avc1
Codec ID/Info                    : Advanced Video Coding
Duration                         : 1h 37mn
Bit rate mode                    : Variable
Bit rate                         : 385 Kbps
Width                            : 480 pixels
Height                           : 272 pixels
Display aspect ratio             : 16:9
Frame rate mode                  : Constant
Frame rate                       : 24.000 fps
Resolution                       : 24 bits
Colorimetry                      : 4:2:0
Scan type                        : Progressive
Bits/(Pixel*Frame)               : 0.123
Stream size                      : 269 MiB (86%)
Encoded date                     : UTC 2010-04-26 21:21:14
Tagged date                      : UTC 2010-04-26 21:21:35

Audio
ID                               : 2
Format                           : AAC
Format/Info                      : Advanced Audio Codec
Format version                   : Version 4
Format profile                   : LC
Format settings, SBR             : Yes
Format settings, PS              : No
Codec ID                         : 40
Duration                         : 1h 37mn
Bit rate mode                    : Variable
Bit rate                         : 62.8 Kbps
Maximum bit rate                 : 140 Kbps
Channel(s)                       : 2 channels
Channel positions                : L R
Sampling rate                    : 48.0 KHz
Resolution                       : 16 bits
Stream size                      : 43.9 MiB (14%)
Encoded date                     : UTC 2010-04-26 21:21:36
Tagged date                      : UTC 2010-04-26 21:21:39

In 2019, a pandemic disease has turned most of the world’s population into vampires. As human numbers dwindle, the need for blood becomes desperate. When deprived of blood for extended periods, vampires degenerate into subsiders, aggressive bat-like creatures. Humans are captured and harvested in laboratory farms while scientists research a synthetic blood substitute. The main supplier of blood in the United States is the pharmaceutical company Bromley Marks, run by Charles Bromley (Sam Neill). Edward Dalton (Ethan Hawke) and Chris Caruso (Vince Colosimo) are hematologists working on the blood substitute. Under pressure from Charles, they try multiple versions in a series of failing clinical trials. Edward secretly refuses to drink human blood and faces a strained relationship with his brother, Frankie (Michael Dorman), a human-hunting soldier. 
http://www.imdb.com/title/tt0433362/

PLEASE SEED AND ENJOY THANKS

screen shots 
http://img94.imageshack.us/img94/5835/daybreakersh264vicvemp4.jpg

My Other Torrents 
http://thepiratebay.org/user/vicerock/

To view H264 files on you,re PC i recomend VLC media player or Media player classic

To burn MP4 H264 files to disc i recomend convert X to dvd click link below thanks
    
http://thepiratebay.org/torrent/5018839/VSO.Convert-X.to.DVD.3.5.3%28vice%29
